<mxfile host="app.diagrams.net" modified="2021-09-26T19:44:31.984Z" agent="5.0 (Macintosh; Intel Mac OS X 10_15_7) AppleWebKit/537.36 (KHTML, like Gecko) Chrome/93.0.4577.82 Safari/537.36" etag="pnKqju54rO5bCVFEtJE3" version="15.3.4" type="github">
  <diagram id="4tuKTm64LaXgP7IwTOWB" name="Page-1">
    <mxGraphModel dx="1160" dy="764" grid="1" gridSize="10" guides="1" tooltips="1" connect="1" arrows="1" fold="1" page="1" pageScale="1" pageWidth="850" pageHeight="1100" math="0" shadow="0">
      <root>
        <mxCell id="0" />
        <mxCell id="1" parent="0" />
        <mxCell id="mfzrroewSdykWeL1LME4-1" value="INVENTORY CLERK" style="rounded=0;whiteSpace=wrap;html=1;hachureGap=4;pointerEvents=0;" vertex="1" parent="1">
          <mxGeometry x="160" y="70" width="120" height="60" as="geometry" />
        </mxCell>
        <mxCell id="mfzrroewSdykWeL1LME4-2" value="SALES PEOPLE" style="rounded=0;whiteSpace=wrap;html=1;hachureGap=4;pointerEvents=0;" vertex="1" parent="1">
          <mxGeometry x="490" y="70" width="120" height="60" as="geometry" />
        </mxCell>
        <mxCell id="mfzrroewSdykWeL1LME4-3" value="SERVICE WRITER" style="rounded=0;whiteSpace=wrap;html=1;hachureGap=4;pointerEvents=0;" vertex="1" parent="1">
          <mxGeometry x="330" y="70" width="120" height="60" as="geometry" />
        </mxCell>
        <mxCell id="mfzrroewSdykWeL1LME4-4" value="MANAGER" style="rounded=0;whiteSpace=wrap;html=1;hachureGap=4;pointerEvents=0;" vertex="1" parent="1">
          <mxGeometry x="60" y="170" width="120" height="60" as="geometry" />
        </mxCell>
        <mxCell id="mfzrroewSdykWeL1LME4-5" value="OWNER" style="rounded=0;whiteSpace=wrap;html=1;hachureGap=4;pointerEvents=0;" vertex="1" parent="1">
          <mxGeometry x="660" y="70" width="120" height="60" as="geometry" />
        </mxCell>
        <mxCell id="mfzrroewSdykWeL1LME4-10" value="" style="endArrow=none;html=1;startSize=14;endSize=14;sourcePerimeterSpacing=8;targetPerimeterSpacing=8;" edge="1" parent="1">
          <mxGeometry width="50" height="50" relative="1" as="geometry">
            <mxPoint x="635" y="330" as="sourcePoint" />
            <mxPoint x="685" y="280" as="targetPoint" />
          </mxGeometry>
        </mxCell>
        <mxCell id="mfzrroewSdykWeL1LME4-13" value="VIN Number" style="ellipse;whiteSpace=wrap;html=1;align=center;fontStyle=4;hachureGap=4;pointerEvents=0;" vertex="1" parent="1">
          <mxGeometry x="635" y="240" width="100" height="40" as="geometry" />
        </mxCell>
        <mxCell id="mfzrroewSdykWeL1LME4-15" value="VEHICLE" style="whiteSpace=wrap;html=1;align=center;hachureGap=4;pointerEvents=0;" vertex="1" parent="1">
          <mxGeometry x="585" y="330" width="100" height="40" as="geometry" />
        </mxCell>
        <mxCell id="mfzrroewSdykWeL1LME4-16" value="Model" style="ellipse;whiteSpace=wrap;html=1;align=center;hachureGap=4;pointerEvents=0;" vertex="1" parent="1">
          <mxGeometry x="635" y="380" width="100" height="40" as="geometry" />
        </mxCell>
        <mxCell id="mfzrroewSdykWeL1LME4-17" value="Name" style="ellipse;whiteSpace=wrap;html=1;align=center;hachureGap=4;pointerEvents=0;" vertex="1" parent="1">
          <mxGeometry x="685" y="430" width="100" height="40" as="geometry" />
        </mxCell>
        <mxCell id="mfzrroewSdykWeL1LME4-18" value="Year" style="ellipse;whiteSpace=wrap;html=1;align=center;hachureGap=4;pointerEvents=0;" vertex="1" parent="1">
          <mxGeometry x="570" y="430" width="100" height="40" as="geometry" />
        </mxCell>
        <mxCell id="mfzrroewSdykWeL1LME4-19" value="" style="endArrow=none;html=1;rounded=0;startSize=14;endSize=14;sourcePerimeterSpacing=8;targetPerimeterSpacing=8;entryX=0.37;entryY=0;entryDx=0;entryDy=0;entryPerimeter=0;exitX=0.68;exitY=0.075;exitDx=0;exitDy=0;exitPerimeter=0;" edge="1" parent="1" source="mfzrroewSdykWeL1LME4-18" target="mfzrroewSdykWeL1LME4-17">
          <mxGeometry relative="1" as="geometry">
            <mxPoint x="620" y="400" as="sourcePoint" />
            <mxPoint x="700" y="360" as="targetPoint" />
            <Array as="points">
              <mxPoint x="680" y="420" />
            </Array>
          </mxGeometry>
        </mxCell>
        <mxCell id="mfzrroewSdykWeL1LME4-21" value="" style="endArrow=none;html=1;rounded=0;startSize=14;endSize=14;sourcePerimeterSpacing=8;targetPerimeterSpacing=8;exitX=0.41;exitY=1;exitDx=0;exitDy=0;exitPerimeter=0;entryX=0;entryY=0;entryDx=0;entryDy=0;" edge="1" parent="1" source="mfzrroewSdykWeL1LME4-15" target="mfzrroewSdykWeL1LME4-16">
          <mxGeometry relative="1" as="geometry">
            <mxPoint x="540" y="360" as="sourcePoint" />
            <mxPoint x="700" y="360" as="targetPoint" />
          </mxGeometry>
        </mxCell>
        <mxCell id="mfzrroewSdykWeL1LME4-23" value="Color" style="ellipse;shape=doubleEllipse;margin=3;whiteSpace=wrap;html=1;align=center;hachureGap=4;pointerEvents=0;" vertex="1" parent="1">
          <mxGeometry x="720" y="330" width="100" height="40" as="geometry" />
        </mxCell>
        <mxCell id="mfzrroewSdykWeL1LME4-24" value="" style="endArrow=none;html=1;rounded=0;startSize=14;endSize=14;sourcePerimeterSpacing=8;targetPerimeterSpacing=8;entryX=0;entryY=0.5;entryDx=0;entryDy=0;exitX=1;exitY=0.5;exitDx=0;exitDy=0;" edge="1" parent="1" source="mfzrroewSdykWeL1LME4-15" target="mfzrroewSdykWeL1LME4-23">
          <mxGeometry relative="1" as="geometry">
            <mxPoint x="690" y="350" as="sourcePoint" />
            <mxPoint x="700" y="360" as="targetPoint" />
          </mxGeometry>
        </mxCell>
        <mxCell id="mfzrroewSdykWeL1LME4-25" value="Optional description" style="ellipse;whiteSpace=wrap;html=1;align=center;hachureGap=4;pointerEvents=0;" vertex="1" parent="1">
          <mxGeometry x="730" y="270" width="100" height="40" as="geometry" />
        </mxCell>
        <mxCell id="mfzrroewSdykWeL1LME4-26" value="" style="endArrow=none;html=1;rounded=0;startSize=14;endSize=14;sourcePerimeterSpacing=8;targetPerimeterSpacing=8;entryX=0;entryY=0.5;entryDx=0;entryDy=0;exitX=1;exitY=0;exitDx=0;exitDy=0;" edge="1" parent="1" source="mfzrroewSdykWeL1LME4-15" target="mfzrroewSdykWeL1LME4-25">
          <mxGeometry relative="1" as="geometry">
            <mxPoint x="540" y="350" as="sourcePoint" />
            <mxPoint x="700" y="350" as="targetPoint" />
          </mxGeometry>
        </mxCell>
        <mxCell id="mfzrroewSdykWeL1LME4-62" style="edgeStyle=none;curved=1;rounded=0;orthogonalLoop=1;jettySize=auto;html=1;exitX=0.5;exitY=1;exitDx=0;exitDy=0;entryX=0.5;entryY=0;entryDx=0;entryDy=0;endArrow=open;sourcePerimeterSpacing=8;targetPerimeterSpacing=8;shape=link;" edge="1" parent="1" target="mfzrroewSdykWeL1LME4-58">
          <mxGeometry relative="1" as="geometry">
            <mxPoint x="185" y="380" as="sourcePoint" />
          </mxGeometry>
        </mxCell>
        <mxCell id="mfzrroewSdykWeL1LME4-27" value="CUSTOMER" style="rounded=1;arcSize=10;whiteSpace=wrap;html=1;align=center;hachureGap=4;pointerEvents=0;" vertex="1" parent="1">
          <mxGeometry x="135" y="340" width="100" height="40" as="geometry" />
        </mxCell>
        <mxCell id="mfzrroewSdykWeL1LME4-66" style="rounded=0;orthogonalLoop=1;jettySize=auto;html=1;exitX=0.75;exitY=0;exitDx=0;exitDy=0;entryX=0;entryY=0.5;entryDx=0;entryDy=0;endArrow=none;sourcePerimeterSpacing=8;targetPerimeterSpacing=8;endFill=0;" edge="1" parent="1" source="mfzrroewSdykWeL1LME4-28" target="mfzrroewSdykWeL1LME4-58">
          <mxGeometry relative="1" as="geometry" />
        </mxCell>
        <mxCell id="mfzrroewSdykWeL1LME4-28" value="INDIVIDUAL" style="rounded=1;arcSize=10;whiteSpace=wrap;html=1;align=center;hachureGap=4;pointerEvents=0;" vertex="1" parent="1">
          <mxGeometry x="10" y="443" width="100" height="40" as="geometry" />
        </mxCell>
        <mxCell id="mfzrroewSdykWeL1LME4-29" value="BUSINESS" style="rounded=1;arcSize=10;whiteSpace=wrap;html=1;align=center;hachureGap=4;pointerEvents=0;" vertex="1" parent="1">
          <mxGeometry x="260" y="443" width="100" height="40" as="geometry" />
        </mxCell>
        <mxCell id="mfzrroewSdykWeL1LME4-30" value="Address" style="ellipse;whiteSpace=wrap;html=1;align=center;hachureGap=4;pointerEvents=0;" vertex="1" parent="1">
          <mxGeometry x="10" y="360" width="100" height="40" as="geometry" />
        </mxCell>
        <mxCell id="mfzrroewSdykWeL1LME4-31" value="" style="endArrow=none;html=1;rounded=0;startSize=14;endSize=14;sourcePerimeterSpacing=8;targetPerimeterSpacing=8;exitX=1;exitY=0.5;exitDx=0;exitDy=0;entryX=0;entryY=1;entryDx=0;entryDy=0;" edge="1" parent="1" source="mfzrroewSdykWeL1LME4-30" target="mfzrroewSdykWeL1LME4-27">
          <mxGeometry relative="1" as="geometry">
            <mxPoint x="330" y="380" as="sourcePoint" />
            <mxPoint x="490" y="380" as="targetPoint" />
          </mxGeometry>
        </mxCell>
        <mxCell id="mfzrroewSdykWeL1LME4-35" value="Phone #" style="ellipse;whiteSpace=wrap;html=1;align=center;hachureGap=4;pointerEvents=0;" vertex="1" parent="1">
          <mxGeometry x="10" y="300" width="100" height="40" as="geometry" />
        </mxCell>
        <mxCell id="mfzrroewSdykWeL1LME4-37" value="" style="endArrow=none;html=1;rounded=0;startSize=14;endSize=14;sourcePerimeterSpacing=8;targetPerimeterSpacing=8;entryX=0.5;entryY=1;entryDx=0;entryDy=0;" edge="1" parent="1" target="mfzrroewSdykWeL1LME4-35">
          <mxGeometry relative="1" as="geometry">
            <mxPoint x="140" y="380" as="sourcePoint" />
            <mxPoint x="140" y="300" as="targetPoint" />
          </mxGeometry>
        </mxCell>
        <mxCell id="mfzrroewSdykWeL1LME4-38" value="Email address" style="ellipse;whiteSpace=wrap;html=1;align=center;hachureGap=4;pointerEvents=0;" vertex="1" parent="1">
          <mxGeometry x="290" y="320" width="100" height="40" as="geometry" />
        </mxCell>
        <mxCell id="mfzrroewSdykWeL1LME4-40" value="" style="endArrow=none;html=1;rounded=0;startSize=14;endSize=14;sourcePerimeterSpacing=8;targetPerimeterSpacing=8;exitX=1;exitY=0.5;exitDx=0;exitDy=0;entryX=0;entryY=0.5;entryDx=0;entryDy=0;" edge="1" parent="1" source="mfzrroewSdykWeL1LME4-27" target="mfzrroewSdykWeL1LME4-38">
          <mxGeometry relative="1" as="geometry">
            <mxPoint x="330" y="380" as="sourcePoint" />
            <mxPoint x="490" y="380" as="targetPoint" />
          </mxGeometry>
        </mxCell>
        <mxCell id="mfzrroewSdykWeL1LME4-41" value="Name" style="ellipse;whiteSpace=wrap;html=1;align=center;hachureGap=4;pointerEvents=0;" vertex="1" parent="1">
          <mxGeometry y="513" width="100" height="40" as="geometry" />
        </mxCell>
        <mxCell id="mfzrroewSdykWeL1LME4-42" value="" style="endArrow=none;html=1;rounded=0;startSize=14;endSize=14;sourcePerimeterSpacing=8;targetPerimeterSpacing=8;exitX=0.65;exitY=0.975;exitDx=0;exitDy=0;exitPerimeter=0;" edge="1" parent="1" source="mfzrroewSdykWeL1LME4-41">
          <mxGeometry relative="1" as="geometry">
            <mxPoint x="90" y="573" as="sourcePoint" />
            <mxPoint x="80" y="583" as="targetPoint" />
          </mxGeometry>
        </mxCell>
        <mxCell id="mfzrroewSdykWeL1LME4-44" value="" style="endArrow=none;html=1;rounded=0;startSize=14;endSize=14;sourcePerimeterSpacing=8;targetPerimeterSpacing=8;entryX=0.5;entryY=1;entryDx=0;entryDy=0;" edge="1" parent="1" target="mfzrroewSdykWeL1LME4-28">
          <mxGeometry relative="1" as="geometry">
            <mxPoint x="60" y="512" as="sourcePoint" />
            <mxPoint x="220" y="512" as="targetPoint" />
          </mxGeometry>
        </mxCell>
        <mxCell id="mfzrroewSdykWeL1LME4-46" value="First name" style="ellipse;whiteSpace=wrap;html=1;align=center;hachureGap=4;pointerEvents=0;" vertex="1" parent="1">
          <mxGeometry x="40" y="583" width="100" height="40" as="geometry" />
        </mxCell>
        <mxCell id="mfzrroewSdykWeL1LME4-48" value="Last name" style="ellipse;whiteSpace=wrap;html=1;align=center;hachureGap=4;pointerEvents=0;" vertex="1" parent="1">
          <mxGeometry x="100" y="543" width="100" height="40" as="geometry" />
        </mxCell>
        <mxCell id="mfzrroewSdykWeL1LME4-49" value="" style="endArrow=none;html=1;rounded=0;startSize=14;endSize=14;sourcePerimeterSpacing=8;targetPerimeterSpacing=8;exitX=0.66;exitY=1;exitDx=0;exitDy=0;entryX=0;entryY=0;entryDx=0;entryDy=0;exitPerimeter=0;" edge="1" parent="1" source="mfzrroewSdykWeL1LME4-41" target="mfzrroewSdykWeL1LME4-48">
          <mxGeometry relative="1" as="geometry">
            <mxPoint x="330" y="413" as="sourcePoint" />
            <mxPoint x="490" y="413" as="targetPoint" />
          </mxGeometry>
        </mxCell>
        <mxCell id="mfzrroewSdykWeL1LME4-50" value="Driver liscence number" style="ellipse;whiteSpace=wrap;html=1;align=center;fontStyle=4;hachureGap=4;pointerEvents=0;" vertex="1" parent="1">
          <mxGeometry x="120" y="493" width="100" height="40" as="geometry" />
        </mxCell>
        <mxCell id="mfzrroewSdykWeL1LME4-51" value="" style="endArrow=none;html=1;rounded=0;startSize=14;endSize=14;sourcePerimeterSpacing=8;targetPerimeterSpacing=8;exitX=1;exitY=0.5;exitDx=0;exitDy=0;entryX=0;entryY=0.5;entryDx=0;entryDy=0;" edge="1" parent="1" source="mfzrroewSdykWeL1LME4-41" target="mfzrroewSdykWeL1LME4-50">
          <mxGeometry relative="1" as="geometry">
            <mxPoint x="76" y="563" as="sourcePoint" />
            <mxPoint x="124.64466094067257" y="558.8578643762689" as="targetPoint" />
          </mxGeometry>
        </mxCell>
        <mxCell id="mfzrroewSdykWeL1LME4-58" value="d" style="ellipse;whiteSpace=wrap;html=1;aspect=fixed;hachureGap=4;pointerEvents=0;" vertex="1" parent="1">
          <mxGeometry x="170" y="397" width="30" height="30" as="geometry" />
        </mxCell>
        <mxCell id="mfzrroewSdykWeL1LME4-67" style="rounded=0;orthogonalLoop=1;jettySize=auto;html=1;exitX=0.25;exitY=0;exitDx=0;exitDy=0;entryX=1;entryY=0.5;entryDx=0;entryDy=0;endArrow=none;sourcePerimeterSpacing=8;targetPerimeterSpacing=8;endFill=0;" edge="1" parent="1" source="mfzrroewSdykWeL1LME4-29" target="mfzrroewSdykWeL1LME4-58">
          <mxGeometry relative="1" as="geometry">
            <mxPoint x="95" y="453" as="sourcePoint" />
            <mxPoint x="180" y="422" as="targetPoint" />
          </mxGeometry>
        </mxCell>
        <mxCell id="mfzrroewSdykWeL1LME4-68" value="&lt;p class=&quot;p1&quot; style=&quot;margin: 0px ; font-stretch: normal ; line-height: normal&quot;&gt;Tax identification number&lt;span class=&quot;Apple-converted-space&quot;&gt;&amp;nbsp;&lt;/span&gt;&lt;/p&gt;" style="ellipse;whiteSpace=wrap;html=1;align=center;fontStyle=4;hachureGap=4;pointerEvents=0;" vertex="1" parent="1">
          <mxGeometry x="330" y="390" width="130" height="40" as="geometry" />
        </mxCell>
        <mxCell id="mfzrroewSdykWeL1LME4-69" value="" style="endArrow=none;html=1;rounded=0;startSize=14;endSize=14;sourcePerimeterSpacing=8;targetPerimeterSpacing=8;exitX=0;exitY=1;exitDx=0;exitDy=0;entryX=0.75;entryY=0;entryDx=0;entryDy=0;" edge="1" parent="1" source="mfzrroewSdykWeL1LME4-68" target="mfzrroewSdykWeL1LME4-29">
          <mxGeometry relative="1" as="geometry">
            <mxPoint x="110" y="543" as="sourcePoint" />
            <mxPoint x="130" y="523" as="targetPoint" />
          </mxGeometry>
        </mxCell>
        <mxCell id="mfzrroewSdykWeL1LME4-70" value="" style="endArrow=none;html=1;rounded=0;startSize=14;endSize=14;sourcePerimeterSpacing=8;targetPerimeterSpacing=8;entryX=1;entryY=0.5;entryDx=0;entryDy=0;" edge="1" parent="1" target="mfzrroewSdykWeL1LME4-29">
          <mxGeometry relative="1" as="geometry">
            <mxPoint x="410" y="460" as="sourcePoint" />
            <mxPoint x="345" y="453" as="targetPoint" />
          </mxGeometry>
        </mxCell>
        <mxCell id="mfzrroewSdykWeL1LME4-71" value="&lt;p class=&quot;p1&quot; style=&quot;margin: 0px ; font-stretch: normal ; line-height: normal&quot;&gt;Business name&lt;span class=&quot;Apple-converted-space&quot;&gt;&amp;nbsp;&lt;/span&gt;&lt;/p&gt;" style="ellipse;whiteSpace=wrap;html=1;align=center;hachureGap=4;pointerEvents=0;" vertex="1" parent="1">
          <mxGeometry x="410" y="443" width="100" height="40" as="geometry" />
        </mxCell>
        <mxCell id="mfzrroewSdykWeL1LME4-72" value="&lt;p class=&quot;p1&quot; style=&quot;margin: 0px ; font-stretch: normal ; line-height: normal&quot;&gt;Primary contact&amp;nbsp;&lt;/p&gt;" style="ellipse;whiteSpace=wrap;html=1;align=center;hachureGap=4;pointerEvents=0;" vertex="1" parent="1">
          <mxGeometry x="360" y="503" width="100" height="40" as="geometry" />
        </mxCell>
        <mxCell id="mfzrroewSdykWeL1LME4-73" value="" style="endArrow=none;html=1;rounded=0;startSize=14;endSize=14;sourcePerimeterSpacing=8;targetPerimeterSpacing=8;entryX=1;entryY=1;entryDx=0;entryDy=0;exitX=0;exitY=0;exitDx=0;exitDy=0;" edge="1" parent="1" source="mfzrroewSdykWeL1LME4-72" target="mfzrroewSdykWeL1LME4-29">
          <mxGeometry relative="1" as="geometry">
            <mxPoint x="420" y="470" as="sourcePoint" />
            <mxPoint x="370" y="473" as="targetPoint" />
          </mxGeometry>
        </mxCell>
        <mxCell id="mfzrroewSdykWeL1LME4-74" value="" style="endArrow=none;html=1;rounded=0;startSize=14;endSize=14;sourcePerimeterSpacing=8;targetPerimeterSpacing=8;entryX=0.37;entryY=0;entryDx=0;entryDy=0;entryPerimeter=0;exitX=0.68;exitY=0.075;exitDx=0;exitDy=0;exitPerimeter=0;" edge="1" source="mfzrroewSdykWeL1LME4-75" target="mfzrroewSdykWeL1LME4-76" parent="1">
          <mxGeometry relative="1" as="geometry">
            <mxPoint x="352.5" y="523" as="sourcePoint" />
            <mxPoint x="432.5" y="483" as="targetPoint" />
            <Array as="points">
              <mxPoint x="412.5" y="543" />
            </Array>
          </mxGeometry>
        </mxCell>
        <mxCell id="mfzrroewSdykWeL1LME4-75" value="Title" style="ellipse;whiteSpace=wrap;html=1;align=center;hachureGap=4;pointerEvents=0;" vertex="1" parent="1">
          <mxGeometry x="302.5" y="553" width="100" height="40" as="geometry" />
        </mxCell>
        <mxCell id="mfzrroewSdykWeL1LME4-76" value="Name" style="ellipse;whiteSpace=wrap;html=1;align=center;hachureGap=4;pointerEvents=0;" vertex="1" parent="1">
          <mxGeometry x="417.5" y="553" width="100" height="40" as="geometry" />
        </mxCell>
        <mxCell id="mfzrroewSdykWeL1LME4-77" value="SALESPERSON" style="rounded=1;arcSize=10;whiteSpace=wrap;html=1;align=center;hachureGap=4;pointerEvents=0;" vertex="1" parent="1">
          <mxGeometry x="380" y="170" width="100" height="40" as="geometry" />
        </mxCell>
        <mxCell id="mfzrroewSdykWeL1LME4-78" value="BUY FROM" style="shape=rhombus;perimeter=rhombusPerimeter;whiteSpace=wrap;html=1;align=center;hachureGap=4;pointerEvents=0;" vertex="1" parent="1">
          <mxGeometry x="370" y="250" width="120" height="60" as="geometry" />
        </mxCell>
        <mxCell id="mfzrroewSdykWeL1LME4-79" value="" style="endArrow=none;html=1;rounded=0;startSize=14;endSize=14;sourcePerimeterSpacing=8;targetPerimeterSpacing=8;entryX=0.5;entryY=0;entryDx=0;entryDy=0;" edge="1" parent="1" target="mfzrroewSdykWeL1LME4-78">
          <mxGeometry relative="1" as="geometry">
            <mxPoint x="430" y="210" as="sourcePoint" />
            <mxPoint x="195" y="350" as="targetPoint" />
          </mxGeometry>
        </mxCell>
        <mxCell id="mfzrroewSdykWeL1LME4-80" value="" style="endArrow=none;html=1;rounded=0;startSize=14;endSize=14;sourcePerimeterSpacing=8;targetPerimeterSpacing=8;exitX=0.5;exitY=1;exitDx=0;exitDy=0;" edge="1" parent="1">
          <mxGeometry relative="1" as="geometry">
            <mxPoint x="429.5" y="310" as="sourcePoint" />
            <mxPoint x="430" y="340" as="targetPoint" />
          </mxGeometry>
        </mxCell>
      </root>
    </mxGraphModel>
  </diagram>
</mxfile>
